<?xml version="1.0" encoding="us-ascii" standalone="no"?><svg xmlns="http://www.w3.org/2000/svg" xmlns:xlink="http://www.w3.org/1999/xlink" contentStyleType="text/css" height="496px" preserveAspectRatio="none" style="width:699px;height:496px;background:#FFFFFF;" version="1.1" viewBox="0 0 699 496" width="699px" zoomAndPan="magnify"><defs/><g><line style="stroke:#181818;stroke-width:0.5;stroke-dasharray:5.0,5.0;" x1="22" x2="22" y1="82.6094" y2="414.7734"/><line style="stroke:#181818;stroke-width:0.5;stroke-dasharray:5.0,5.0;" x1="241" x2="241" y1="82.6094" y2="414.7734"/><line style="stroke:#181818;stroke-width:0.5;stroke-dasharray:5.0,5.0;" x1="489" x2="489" y1="82.6094" y2="414.7734"/><text fill="#000000" font-family="sans-serif" font-size="14" lengthAdjust="spacing" textLength="28" x="5" y="79.5332">user</text><ellipse cx="22" cy="13.5" fill="#E2E2F0" rx="8" ry="8" style="stroke:#181818;stroke-width:0.5;"/><path d="M22,21.5 L22,48.5 M9,29.5 L35,29.5 M22,48.5 L9,63.5 M22,48.5 L35,63.5 " fill="none" style="stroke:#181818;stroke-width:0.5;"/><text fill="#000000" font-family="sans-serif" font-size="14" lengthAdjust="spacing" textLength="28" x="5" y="428.3066">user</text><ellipse cx="22" cy="439.8828" fill="#E2E2F0" rx="8" ry="8" style="stroke:#181818;stroke-width:0.5;"/><path d="M22,447.8828 L22,474.8828 M9,455.8828 L35,455.8828 M22,474.8828 L9,489.8828 M22,474.8828 L35,489.8828 " fill="none" style="stroke:#181818;stroke-width:0.5;"/><text fill="#000000" font-family="sans-serif" font-size="14" lengthAdjust="spacing" textLength="50" x="213" y="79.5332">browser</text><ellipse cx="241" cy="49" fill="#E2E2F0" rx="12" ry="12" style="stroke:#181818;stroke-width:0.5;"/><line style="stroke:#181818;stroke-width:0.5;" x1="229" x2="253" y1="63" y2="63"/><text fill="#000000" font-family="sans-serif" font-size="14" lengthAdjust="spacing" textLength="50" x="213" y="428.3066">browser</text><ellipse cx="241" cy="447.3828" fill="#E2E2F0" rx="12" ry="12" style="stroke:#181818;stroke-width:0.5;"/><line style="stroke:#181818;stroke-width:0.5;" x1="229" x2="253" y1="461.3828" y2="461.3828"/><text fill="#000000" font-family="sans-serif" font-size="14" lengthAdjust="spacing" textLength="40" x="466" y="79.5332">server</text><ellipse cx="489" cy="49" fill="#E2E2F0" rx="12" ry="12" style="stroke:#181818;stroke-width:0.5;"/><line style="stroke:#181818;stroke-width:0.5;" x1="477" x2="501" y1="63" y2="63"/><text fill="#000000" font-family="sans-serif" font-size="14" lengthAdjust="spacing" textLength="40" x="466" y="428.3066">server</text><ellipse cx="489" cy="447.3828" fill="#E2E2F0" rx="12" ry="12" style="stroke:#181818;stroke-width:0.5;"/><line style="stroke:#181818;stroke-width:0.5;" x1="477" x2="501" y1="461.3828" y2="461.3828"/><polygon fill="#181818" points="229,110.9609,239,114.9609,229,118.9609,233,114.9609" style="stroke:#181818;stroke-width:1.0;"/><line style="stroke:#181818;stroke-width:1.0;" x1="22" x2="235" y1="114.9609" y2="114.9609"/><text fill="#000000" font-family="sans-serif" font-size="13" lengthAdjust="spacing" textLength="60" x="29" y="110.1045">opens app</text><polygon fill="#181818" points="477,141.3125,487,145.3125,477,149.3125,481,145.3125" style="stroke:#181818;stroke-width:1.0;"/><line style="stroke:#181818;stroke-width:1.0;" x1="241" x2="483" y1="145.3125" y2="145.3125"/><text fill="#000000" font-family="sans-serif" font-size="13" lengthAdjust="spacing" textLength="187" x="248" y="140.4561">request user last current timings</text><polygon fill="#181818" points="252,171.6641,242,175.6641,252,179.6641,248,175.6641" style="stroke:#181818;stroke-width:1.0;"/><line style="stroke:#181818;stroke-width:1.0;" x1="246" x2="488" y1="175.6641" y2="175.6641"/><text fill="#000000" font-family="sans-serif" font-size="13" lengthAdjust="spacing" textLength="86" x="258" y="170.8076">responds them</text><polygon fill="#181818" points="477,202.0156,487,206.0156,477,210.0156,481,206.0156" style="stroke:#181818;stroke-width:1.0;"/><line style="stroke:#181818;stroke-width:1.0;" x1="241" x2="483" y1="206.0156" y2="206.0156"/><text fill="#000000" font-family="sans-serif" font-size="13" lengthAdjust="spacing" textLength="172" x="248" y="201.1592">sends periodically user timing</text><line style="stroke:#181818;stroke-width:1.0;" x1="489" x2="531" y1="236.3672" y2="236.3672"/><line style="stroke:#181818;stroke-width:1.0;" x1="531" x2="531" y1="236.3672" y2="249.3672"/><line style="stroke:#181818;stroke-width:1.0;" x1="490" x2="531" y1="249.3672" y2="249.3672"/><polygon fill="#181818" points="500,245.3672,490,249.3672,500,253.3672,496,249.3672" style="stroke:#181818;stroke-width:1.0;"/><text fill="#000000" font-family="sans-serif" font-size="13" lengthAdjust="spacing" textLength="131" x="496" y="231.5107">stores timing internally</text><polygon fill="#181818" points="252,275.7188,242,279.7188,252,283.7188,248,279.7188" style="stroke:#181818;stroke-width:1.0;"/><line style="stroke:#181818;stroke-width:1.0;" x1="246" x2="488" y1="279.7188" y2="279.7188"/><text fill="#000000" font-family="sans-serif" font-size="13" lengthAdjust="spacing" textLength="19" x="258" y="274.8623">OK</text><polygon fill="#181818" points="229,306.0703,239,310.0703,229,314.0703,233,310.0703" style="stroke:#181818;stroke-width:1.0;"/><line style="stroke:#181818;stroke-width:1.0;" x1="22" x2="235" y1="310.0703" y2="310.0703"/><text fill="#000000" font-family="sans-serif" font-size="13" lengthAdjust="spacing" textLength="195" x="29" y="305.2139">user triggers button to stop timing</text><line style="stroke:#181818;stroke-width:1.0;" x1="241" x2="283" y1="340.4219" y2="340.4219"/><line style="stroke:#181818;stroke-width:1.0;" x1="283" x2="283" y1="340.4219" y2="353.4219"/><line style="stroke:#181818;stroke-width:1.0;" x1="242" x2="283" y1="353.4219" y2="353.4219"/><polygon fill="#181818" points="252,349.4219,242,353.4219,252,357.4219,248,353.4219" style="stroke:#181818;stroke-width:1.0;"/><text fill="#000000" font-family="sans-serif" font-size="13" lengthAdjust="spacing" textLength="234" x="248" y="335.5654">stores last timing record in LocalStorage</text><line style="stroke:#181818;stroke-width:1.0;" x1="489" x2="531" y1="383.7734" y2="383.7734"/><line style="stroke:#181818;stroke-width:1.0;" x1="531" x2="531" y1="383.7734" y2="396.7734"/><line style="stroke:#181818;stroke-width:1.0;" x1="490" x2="531" y1="396.7734" y2="396.7734"/><polygon fill="#181818" points="500,392.7734,490,396.7734,500,400.7734,496,396.7734" style="stroke:#181818;stroke-width:1.0;"/><text fill="#000000" font-family="sans-serif" font-size="13" lengthAdjust="spacing" textLength="196" x="496" y="378.917">stores last timing record internally</text><!--SRC=[VKyx3i8m3Drx2b-02tH0Oc02YO4JfAqL8fKus2wejoTfaoe2n6RxVNtebHWcGMwENftEq36zgZMEpxWb1kps1OKMAA0NC24qvHRXbTq2usD2qSKOHXEdVc96hw3kxhoLPcLMbaaaWVmWe3Uy_t8LJ6X0TZIutepZl0QidfNb9eZFeMGSd5TadsIPMeTVJfy_jjcSdRN80jsaIXwKacqeeLNDJPTZbxzpDcDFFCGASARO_1ePnk9NPVWlBltV]--></g></svg>