<?xml version="1.0" encoding="us-ascii" standalone="no"?><svg xmlns="http://www.w3.org/2000/svg" xmlns:xlink="http://www.w3.org/1999/xlink" contentStyleType="text/css" height="440px" preserveAspectRatio="none" style="width:464px;height:440px;background:#FFFFFF;" version="1.1" viewBox="0 0 464 440" width="464px" zoomAndPan="magnify"><defs/><g><line style="stroke:#181818;stroke-width:0.5;stroke-dasharray:5.0,5.0;" x1="26" x2="26" y1="82.6094" y2="358.4219"/><line style="stroke:#181818;stroke-width:0.5;stroke-dasharray:5.0,5.0;" x1="78" x2="78" y1="82.6094" y2="358.4219"/><line style="stroke:#181818;stroke-width:0.5;stroke-dasharray:5.0,5.0;" x1="169" x2="169" y1="82.6094" y2="358.4219"/><line style="stroke:#181818;stroke-width:0.5;stroke-dasharray:5.0,5.0;" x1="297" x2="297" y1="82.6094" y2="358.4219"/><line style="stroke:#181818;stroke-width:0.5;stroke-dasharray:5.0,5.0;" x1="440" x2="440" y1="82.6094" y2="358.4219"/><text fill="#000000" font-family="sans-serif" font-size="14" lengthAdjust="spacing" textLength="36" x="5" y="79.5332">user1</text><ellipse cx="26" cy="13.5" fill="#E2E2F0" rx="8" ry="8" style="stroke:#181818;stroke-width:0.5;"/><path d="M26,21.5 L26,48.5 M13,29.5 L39,29.5 M26,48.5 L13,63.5 M26,48.5 L39,63.5 " fill="none" style="stroke:#181818;stroke-width:0.5;"/><text fill="#000000" font-family="sans-serif" font-size="14" lengthAdjust="spacing" textLength="36" x="5" y="371.9551">user1</text><ellipse cx="26" cy="383.5313" fill="#E2E2F0" rx="8" ry="8" style="stroke:#181818;stroke-width:0.5;"/><path d="M26,391.5313 L26,418.5313 M13,399.5313 L39,399.5313 M26,418.5313 L13,433.5313 M26,418.5313 L39,433.5313 " fill="none" style="stroke:#181818;stroke-width:0.5;"/><text fill="#000000" font-family="sans-serif" font-size="14" lengthAdjust="spacing" textLength="36" x="57" y="79.5332">user2</text><ellipse cx="78" cy="13.5" fill="#E2E2F0" rx="8" ry="8" style="stroke:#181818;stroke-width:0.5;"/><path d="M78,21.5 L78,48.5 M65,29.5 L91,29.5 M78,48.5 L65,63.5 M78,48.5 L91,63.5 " fill="none" style="stroke:#181818;stroke-width:0.5;"/><text fill="#000000" font-family="sans-serif" font-size="14" lengthAdjust="spacing" textLength="36" x="57" y="371.9551">user2</text><ellipse cx="78" cy="383.5313" fill="#E2E2F0" rx="8" ry="8" style="stroke:#181818;stroke-width:0.5;"/><path d="M78,391.5313 L78,418.5313 M65,399.5313 L91,399.5313 M78,418.5313 L65,433.5313 M78,418.5313 L91,433.5313 " fill="none" style="stroke:#181818;stroke-width:0.5;"/><text fill="#000000" font-family="sans-serif" font-size="14" lengthAdjust="spacing" textLength="58" x="137" y="79.5332">browser1</text><ellipse cx="169" cy="49" fill="#E2E2F0" rx="12" ry="12" style="stroke:#181818;stroke-width:0.5;"/><line style="stroke:#181818;stroke-width:0.5;" x1="157" x2="181" y1="63" y2="63"/><text fill="#000000" font-family="sans-serif" font-size="14" lengthAdjust="spacing" textLength="58" x="137" y="371.9551">browser1</text><ellipse cx="169" cy="391.0313" fill="#E2E2F0" rx="12" ry="12" style="stroke:#181818;stroke-width:0.5;"/><line style="stroke:#181818;stroke-width:0.5;" x1="157" x2="181" y1="405.0313" y2="405.0313"/><text fill="#000000" font-family="sans-serif" font-size="14" lengthAdjust="spacing" textLength="58" x="265" y="79.5332">browser2</text><ellipse cx="297" cy="49" fill="#E2E2F0" rx="12" ry="12" style="stroke:#181818;stroke-width:0.5;"/><line style="stroke:#181818;stroke-width:0.5;" x1="285" x2="309" y1="63" y2="63"/><text fill="#000000" font-family="sans-serif" font-size="14" lengthAdjust="spacing" textLength="58" x="265" y="371.9551">browser2</text><ellipse cx="297" cy="391.0313" fill="#E2E2F0" rx="12" ry="12" style="stroke:#181818;stroke-width:0.5;"/><line style="stroke:#181818;stroke-width:0.5;" x1="285" x2="309" y1="405.0313" y2="405.0313"/><text fill="#000000" font-family="sans-serif" font-size="14" lengthAdjust="spacing" textLength="40" x="417" y="79.5332">server</text><ellipse cx="440" cy="49" fill="#E2E2F0" rx="12" ry="12" style="stroke:#181818;stroke-width:0.5;"/><line style="stroke:#181818;stroke-width:0.5;" x1="428" x2="452" y1="63" y2="63"/><text fill="#000000" font-family="sans-serif" font-size="14" lengthAdjust="spacing" textLength="40" x="417" y="371.9551">server</text><ellipse cx="440" cy="391.0313" fill="#E2E2F0" rx="12" ry="12" style="stroke:#181818;stroke-width:0.5;"/><line style="stroke:#181818;stroke-width:0.5;" x1="428" x2="452" y1="405.0313" y2="405.0313"/><polygon fill="#181818" points="157,110.9609,167,114.9609,157,118.9609,161,114.9609" style="stroke:#181818;stroke-width:1.0;"/><line style="stroke:#181818;stroke-width:1.0;" x1="26" x2="163" y1="114.9609" y2="114.9609"/><text fill="#000000" font-family="sans-serif" font-size="13" lengthAdjust="spacing" textLength="70" x="33" y="110.1045">initiates app</text><polygon fill="#181818" points="285,141.3125,295,145.3125,285,149.3125,289,145.3125" style="stroke:#181818;stroke-width:1.0;"/><line style="stroke:#181818;stroke-width:1.0;" x1="78" x2="291" y1="145.3125" y2="145.3125"/><text fill="#000000" font-family="sans-serif" font-size="13" lengthAdjust="spacing" textLength="70" x="85" y="140.4561">initiates app</text><polygon fill="#181818" points="157,171.6641,167,175.6641,157,179.6641,161,175.6641" style="stroke:#181818;stroke-width:1.0;"/><line style="stroke:#181818;stroke-width:1.0;" x1="26" x2="163" y1="175.6641" y2="175.6641"/><text fill="#000000" font-family="sans-serif" font-size="13" lengthAdjust="spacing" textLength="119" x="33" y="170.8076">clicks button to start</text><polygon fill="#181818" points="428,202.0156,438,206.0156,428,210.0156,432,206.0156" style="stroke:#181818;stroke-width:1.0;"/><line style="stroke:#181818;stroke-width:1.0;" x1="169" x2="434" y1="206.0156" y2="206.0156"/><text fill="#000000" font-family="sans-serif" font-size="13" lengthAdjust="spacing" textLength="119" x="176" y="201.1592">starts time recording</text><polygon fill="#181818" points="285,232.3672,295,236.3672,285,240.3672,289,236.3672" style="stroke:#181818;stroke-width:1.0;"/><line style="stroke:#181818;stroke-width:1.0;" x1="78" x2="291" y1="236.3672" y2="236.3672"/><text fill="#000000" font-family="sans-serif" font-size="13" lengthAdjust="spacing" textLength="119" x="85" y="231.5107">clicks button to start</text><polygon fill="#181818" points="428,262.7188,438,266.7188,428,270.7188,432,266.7188" style="stroke:#181818;stroke-width:1.0;"/><line style="stroke:#181818;stroke-width:1.0;" x1="297" x2="434" y1="266.7188" y2="266.7188"/><text fill="#000000" font-family="sans-serif" font-size="13" lengthAdjust="spacing" textLength="119" x="304" y="261.8623">starts time recording</text><polygon fill="#181818" points="180,293.0703,170,297.0703,180,301.0703,176,297.0703" style="stroke:#181818;stroke-width:1.0;"/><line style="stroke:#181818;stroke-width:1.0;" x1="174" x2="439" y1="297.0703" y2="297.0703"/><text fill="#000000" font-family="sans-serif" font-size="13" lengthAdjust="spacing" textLength="158" x="186" y="292.2139">sends websocket message</text><line style="stroke:#181818;stroke-width:1.0;" x1="169" x2="211" y1="327.4219" y2="327.4219"/><line style="stroke:#181818;stroke-width:1.0;" x1="211" x2="211" y1="327.4219" y2="340.4219"/><line style="stroke:#181818;stroke-width:1.0;" x1="170" x2="211" y1="340.4219" y2="340.4219"/><polygon fill="#181818" points="180,336.4219,170,340.4219,180,344.4219,176,340.4219" style="stroke:#181818;stroke-width:1.0;"/><text fill="#000000" font-family="sans-serif" font-size="13" lengthAdjust="spacing" textLength="114" x="176" y="322.5654">stops time counting</text><!--SRC=[XP113e9034NtSufUm8MpP672meCCGqCQP3ffYyJRYw0JC4Htl_cllp-jex70g2XdLnVjtJKPsGCQuMdnzdFnPtr7SSi-d2w5hu0I6GL3XP3p0lWDu8-0huHuezWhDACP9p06jI3cFi0BNizNgwDWD208HfQMKdTqz7Uc_v-vklkYYgbLcB1HZZqQ3AWQEjmrtT36-HqRUPpVcBed]--></g></svg>